<svg version="1.0" xmlns="http://www.w3.org/2000/svg"
 width="512pt" height="512pt" viewBox="0 0 512 512">

<g transform="translate(0.000000,512.000000) scale(0.100000,-0.100000)"
fill="#000000" stroke="none">
<path d="M2960 5103 c-180 -21 -340 -160 -396 -342 -21 -70 -18 -200 7 -273
41 -124 129 -224 241 -276 l58 -27 -2 -315 -3 -314 -70 -16 c-283 -65 -542
-265 -669 -517 l-26 -52 -42 14 c-24 8 -221 69 -438 135 -217 67 -408 125
-425 130 l-30 10 -1 84 c-3 254 -185 485 -434 551 -73 19 -217 19 -294 -1
-438 -113 -582 -669 -253 -980 86 -82 149 -118 253 -144 201 -52 405 2 552
146 l66 64 481 -148 482 -147 0 -125 c1 -253 81 -471 241 -653 l34 -39 -24
-26 c-21 -25 -309 -334 -367 -395 l-27 -27 -78 20 c-94 24 -149 25 -234 5
-181 -43 -322 -179 -373 -360 -44 -157 8 -347 128 -469 94 -95 215 -146 354
-146 138 0 246 45 345 144 150 150 188 358 102 559 l-20 47 128 137 c71 75
170 179 219 231 l90 94 75 -36 c116 -55 215 -78 367 -83 78 -3 160 -1 200 6
80 14 210 54 266 83 22 11 43 16 47 11 4 -4 103 -154 220 -331 l212 -324 -25
-26 c-40 -42 -94 -138 -119 -211 -30 -88 -32 -258 -4 -341 33 -99 79 -173 151
-245 120 -120 242 -170 415 -168 86 0 118 5 180 26 364 128 509 561 293 881
-114 168 -316 267 -513 252 -41 -3 -84 -8 -96 -12 -22 -6 -25 -3 -353 499
l-123 187 39 43 c58 63 121 159 165 253 21 46 42 84 45 84 12 0 248 -41 264
-46 10 -3 22 -24 29 -52 49 -197 257 -330 458 -293 155 28 277 133 322 278 86
279 -134 554 -423 530 -90 -8 -180 -50 -252 -118 l-55 -52 -137 23 c-76 12
-142 24 -149 27 -7 2 -13 45 -17 111 -4 70 -15 137 -31 193 -14 48 -27 92 -28
99 -2 7 110 81 248 165 l251 153 74 -37 c70 -35 77 -36 178 -36 98 0 111 2
172 31 288 137 319 533 55 708 -70 47 -141 68 -226 68 -85 0 -156 -21 -226
-68 -113 -75 -175 -188 -179 -329 l-3 -80 -253 -154 -254 -153 -40 44 c-86 96
-206 182 -329 238 -68 30 -203 70 -238 70 -17 0 -18 18 -18 318 l0 317 48 22
c160 73 272 247 272 420 0 214 -137 399 -340 461 -43 13 -142 21 -190 15z
m235 -1859 c220 -56 412 -233 488 -453 39 -112 48 -269 22 -386 -44 -197 -184
-379 -362 -467 -125 -63 -214 -82 -356 -76 -199 9 -354 81 -490 228 -119 128
-180 288 -180 470 -1 169 48 310 152 439 175 218 456 313 726 245z"/>
</g>
</svg>
